<svg xmlns="http://www.w3.org/2000/svg" xmlns:xlink="http://www.w3.org/1999/xlink" width="1024" zoomAndPan="magnify" viewBox="0 0 768 767.999994" height="1024" preserveAspectRatio="xMidYMid meet" version="1.2"><defs><clipPath id="f7921a310e"><path d="M 528 282.507812 L 554.710938 282.507812 L 554.710938 380.757812 L 528 380.757812 Z M 528 282.507812 "/></clipPath><clipPath id="6c8f120409"><path d="M 180.492188 304 L 208.992188 304 L 208.992188 406.609375 L 180.492188 406.609375 Z M 180.492188 304 "/></clipPath><clipPath id="285c8ef044"><path d="M 183.019531 276.179688 L 206.648438 276.179688 L 206.648438 299.808594 L 183.019531 299.808594 Z M 183.019531 276.179688 "/></clipPath><clipPath id="53ea2c28ad"><path d="M 194.835938 276.179688 C 188.308594 276.179688 183.019531 281.46875 183.019531 287.996094 C 183.019531 294.519531 188.308594 299.808594 194.835938 299.808594 C 201.359375 299.808594 206.648438 294.519531 206.648438 287.996094 C 206.648438 281.46875 201.359375 276.179688 194.835938 276.179688 Z M 194.835938 276.179688 "/></clipPath></defs><g id="683d0b0b66"><g style="fill:#f1efe7;fill-opacity:1;"><g transform="translate(208.490326, 407.650781)"><path style="stroke:none" d="M 0.84375 -69.21875 L 0.84375 -86.515625 L 61.671875 -86.515625 L 61.671875 -69.21875 L 41.109375 -69.21875 L 41.109375 0 L 21.390625 0 L 21.390625 -69.21875 Z M 0.84375 -69.21875 "/></g></g><g style="fill:#f1efe7;fill-opacity:1;"><g transform="translate(261.134187, 407.650781)"><path style="stroke:none" d="M 60.71875 -24.328125 L 21.703125 -24.328125 C 21.703125 -20.554688 22.925781 -17.757812 25.375 -15.9375 C 27.820312 -14.125 30.476562 -13.21875 33.34375 -13.21875 C 36.351562 -13.21875 38.734375 -13.617188 40.484375 -14.421875 C 42.234375 -15.222656 44.222656 -16.8125 46.453125 -19.1875 L 59.890625 -12.484375 C 54.296875 -3.109375 44.992188 1.578125 31.984375 1.578125 C 23.878906 1.578125 16.921875 -1.203125 11.109375 -6.765625 C 5.304688 -12.328125 2.40625 -19.019531 2.40625 -26.84375 C 2.40625 -34.675781 5.304688 -41.390625 11.109375 -46.984375 C 16.921875 -52.578125 23.878906 -55.375 31.984375 -55.375 C 40.515625 -55.375 47.453125 -52.910156 52.796875 -47.984375 C 58.148438 -43.054688 60.828125 -36.007812 60.828125 -26.84375 C 60.828125 -25.582031 60.789062 -24.742188 60.71875 -24.328125 Z M 22.234375 -34.609375 L 42.6875 -34.609375 C 42.269531 -37.398438 41.164062 -39.546875 39.375 -41.046875 C 37.59375 -42.554688 35.304688 -43.3125 32.515625 -43.3125 C 29.429688 -43.3125 26.976562 -42.503906 25.15625 -40.890625 C 23.34375 -39.285156 22.367188 -37.191406 22.234375 -34.609375 Z M 22.234375 -34.609375 "/></g></g><g style="fill:#f1efe7;fill-opacity:1;"><g transform="translate(314.512141, 407.650781)"><path style="stroke:none" d="M 6.296875 0 L 6.296875 -90.1875 L 24.859375 -90.1875 L 24.859375 0 Z M 6.296875 0 "/></g></g><g style="fill:#f1efe7;fill-opacity:1;"><g transform="translate(335.799524, 407.650781)"><path style="stroke:none" d="M 6.296875 0 L 6.296875 -90.1875 L 24.859375 -90.1875 L 24.859375 0 Z M 6.296875 0 "/></g></g><g style="fill:#ff914d;fill-opacity:1;"><g transform="translate(357.095791, 407.650781)"><path style="stroke:none" d="M 50.234375 -86.515625 L 85.15625 0 L 63.96875 0 L 57.578125 -17.296875 L 24.640625 -17.296875 L 18.25 0 L -2.9375 0 L 31.984375 -86.515625 Z M 50.859375 -34.609375 L 41.21875 -59.78125 L 41 -59.78125 L 31.359375 -34.609375 Z M 50.859375 -34.609375 "/></g></g><g style="fill:#ff914d;fill-opacity:1;"><g transform="translate(429.45543, 407.650781)"><path style="stroke:none" d="M 6.296875 0 L 6.296875 -53.796875 L 24.859375 -53.796875 L 24.859375 -48.140625 L 25.0625 -48.140625 C 29.882812 -52.960938 35.023438 -55.375 40.484375 -55.375 C 44.398438 -55.375 48.066406 -54.566406 51.484375 -52.953125 C 54.910156 -51.347656 57.5 -48.867188 59.25 -45.515625 C 64.707031 -52.085938 70.648438 -55.375 77.078125 -55.375 C 82.816406 -55.375 87.75 -53.765625 91.875 -50.546875 C 96 -47.328125 98.0625 -42.296875 98.0625 -35.453125 L 98.0625 0 L 79.5 0 L 79.5 -30.40625 C 79.5 -33.28125 78.710938 -35.675781 77.140625 -37.59375 C 75.566406 -39.519531 73.207031 -40.484375 70.0625 -40.484375 C 67.332031 -40.484375 65.25 -39.660156 63.8125 -38.015625 C 62.382812 -36.367188 61.597656 -34.394531 61.453125 -32.09375 L 61.453125 0 L 42.890625 0 L 42.890625 -30.40625 C 42.890625 -33.28125 42.101562 -35.675781 40.53125 -37.59375 C 38.957031 -39.519531 36.597656 -40.484375 33.453125 -40.484375 C 30.585938 -40.484375 28.4375 -39.59375 27 -37.8125 C 25.570312 -36.03125 24.859375 -33.914062 24.859375 -31.46875 L 24.859375 0 Z M 6.296875 0 "/></g></g><g style="fill:#f1efe7;fill-opacity:1;"><g transform="translate(522.904373, 407.650781)"><path style="stroke:none" d="M 18.25 -22.4375 C 21.601562 -22.4375 24.453125 -21.265625 26.796875 -18.921875 C 29.140625 -16.585938 30.3125 -13.738281 30.3125 -10.375 C 30.3125 -7.09375 29.140625 -4.28125 26.796875 -1.9375 C 24.453125 0.40625 21.601562 1.578125 18.25 1.578125 C 14.957031 1.578125 12.140625 0.40625 9.796875 -1.9375 C 7.460938 -4.28125 6.296875 -7.09375 6.296875 -10.375 C 6.296875 -13.738281 7.460938 -16.585938 9.796875 -18.921875 C 12.140625 -21.265625 14.957031 -22.4375 18.25 -22.4375 Z M 18.25 -22.4375 "/></g></g><g clip-rule="nonzero" clip-path="url(#f7921a310e)"><path style=" stroke:none;fill-rule:nonzero;fill:#ff914d;fill-opacity:1;" d="M 544.9375 325.230469 C 544.9375 325.15625 544.9375 325.070312 544.984375 324.992188 C 545.707031 322.300781 546.835938 319.789062 548.371094 317.460938 C 548.65625 316.984375 548.953125 316.507812 549.269531 316 C 550.167969 314.621094 553.640625 309.214844 553.917969 306.539062 C 554.589844 300.273438 553.363281 288.582031 552.960938 284.226562 L 552.960938 284.027344 C 552.960938 283.828125 552.921875 283.632812 552.84375 283.449219 C 552.769531 283.261719 552.660156 283.101562 552.515625 282.957031 C 552.375 282.816406 552.214844 282.707031 552.027344 282.628906 C 551.84375 282.550781 551.652344 282.507812 551.449219 282.507812 L 550.550781 282.507812 L 550.359375 282.574219 L 550.285156 282.628906 C 549.996094 282.742188 549.765625 282.925781 549.589844 283.179688 C 549.414062 283.4375 549.328125 283.71875 549.328125 284.027344 L 549.328125 306.632812 C 549.3125 306.824219 549.261719 307.003906 549.179688 307.175781 C 549.09375 307.347656 548.984375 307.5 548.84375 307.628906 C 548.703125 307.761719 548.542969 307.859375 548.363281 307.929688 C 548.1875 308 548 308.035156 547.808594 308.035156 C 547.621094 308.035156 547.433594 308 547.257812 307.929688 C 547.078125 307.859375 546.917969 307.761719 546.777344 307.628906 C 546.636719 307.5 546.527344 307.347656 546.441406 307.175781 C 546.359375 307.003906 546.308594 306.824219 546.292969 306.632812 L 546.292969 284.027344 C 546.292969 283.828125 546.257812 283.636719 546.183594 283.453125 C 546.109375 283.269531 546 283.105469 545.863281 282.964844 C 545.722656 282.824219 545.5625 282.710938 545.382812 282.632812 C 545.199219 282.554688 545.007812 282.511719 544.8125 282.507812 L 544.238281 282.507812 C 544.035156 282.503906 543.839844 282.542969 543.652344 282.621094 C 543.464844 282.695312 543.300781 282.804688 543.15625 282.949219 C 543.011719 283.089844 542.902344 283.257812 542.824219 283.441406 C 542.746094 283.628906 542.707031 283.824219 542.707031 284.027344 L 542.707031 306.632812 C 542.707031 306.832031 542.667969 307.027344 542.589844 307.210938 C 542.515625 307.398438 542.40625 307.558594 542.265625 307.703125 C 542.121094 307.84375 541.957031 307.953125 541.773438 308.03125 C 541.589844 308.105469 541.394531 308.144531 541.195312 308.144531 C 540.996094 308.144531 540.800781 308.105469 540.617188 308.03125 C 540.429688 307.953125 540.269531 307.84375 540.125 307.703125 C 539.984375 307.558594 539.875 307.398438 539.796875 307.210938 C 539.722656 307.027344 539.683594 306.832031 539.683594 306.632812 L 539.683594 284.027344 C 539.683594 283.824219 539.644531 283.628906 539.566406 283.441406 C 539.488281 283.257812 539.378906 283.089844 539.234375 282.949219 C 539.089844 282.804688 538.925781 282.695312 538.738281 282.621094 C 538.550781 282.542969 538.355469 282.503906 538.152344 282.507812 L 537.578125 282.507812 C 537.378906 282.507812 537.183594 282.542969 537 282.621094 C 536.8125 282.699219 536.648438 282.808594 536.507812 282.953125 C 536.363281 283.09375 536.253906 283.257812 536.179688 283.445312 C 536.105469 283.632812 536.066406 283.824219 536.066406 284.027344 L 536.066406 306.632812 C 536.050781 306.824219 536.003906 307.003906 535.917969 307.175781 C 535.835938 307.347656 535.722656 307.5 535.582031 307.628906 C 535.441406 307.761719 535.285156 307.859375 535.105469 307.929688 C 534.925781 308 534.742188 308.035156 534.550781 308.035156 C 534.359375 308.035156 534.175781 308 533.996094 307.929688 C 533.820312 307.859375 533.660156 307.761719 533.519531 307.628906 C 533.378906 307.5 533.265625 307.347656 533.183594 307.175781 C 533.097656 307.003906 533.050781 306.824219 533.035156 306.632812 L 533.035156 284.027344 C 533.039062 283.722656 532.953125 283.441406 532.785156 283.1875 C 532.617188 282.929688 532.390625 282.746094 532.105469 282.628906 L 532.050781 282.628906 L 531.839844 282.507812 L 530.929688 282.507812 C 530.726562 282.507812 530.535156 282.542969 530.347656 282.621094 C 530.160156 282.699219 529.996094 282.808594 529.855469 282.953125 C 529.710938 283.09375 529.601562 283.257812 529.523438 283.445312 C 529.449219 283.632812 529.410156 283.824219 529.410156 284.027344 L 529.410156 284.226562 C 529.035156 288.582031 527.8125 300.273438 528.472656 306.539062 C 528.757812 309.214844 532.222656 314.621094 533.128906 316 C 533.445312 316.507812 533.742188 316.957031 534.03125 317.460938 C 535.554688 319.792969 536.679688 322.304688 537.40625 324.992188 C 537.40625 325.070312 537.40625 325.15625 537.453125 325.230469 C 537.503906 325.308594 537.539062 325.632812 537.578125 325.84375 C 537.863281 327.632812 537.914062 329.425781 537.722656 331.230469 C 537.121094 337.839844 535.3125 352.589844 535.167969 367.34375 C 535.042969 379.78125 539.433594 380.738281 540.792969 380.738281 C 540.925781 380.746094 541.0625 380.746094 541.195312 380.738281 C 541.328125 380.746094 541.464844 380.746094 541.597656 380.738281 C 542.945312 380.738281 547.335938 379.78125 547.222656 367.34375 C 547.078125 352.589844 545.308594 337.839844 544.667969 331.230469 C 544.476562 329.425781 544.527344 327.632812 544.8125 325.84375 C 544.851562 325.632812 544.886719 325.433594 544.9375 325.230469 Z M 544.9375 325.230469 "/></g><g clip-rule="nonzero" clip-path="url(#6c8f120409)"><path style=" stroke:none;fill-rule:nonzero;fill:#ff914d;fill-opacity:1;" d="M 180.796875 391.226562 C 180.953125 400.175781 187.945312 406.5 194.792969 406.5 C 201.636719 406.5 208.628906 400.175781 208.796875 391.226562 C 208.964844 382.277344 206.828125 378.441406 203.386719 372.777344 C 199.945312 367.109375 197.820312 363.550781 198.46875 356.558594 C 199.121094 349.566406 201.019531 333.9375 201.175781 318.378906 C 201.332031 302.820312 194.792969 304.21875 194.792969 304.21875 C 194.792969 304.21875 188.273438 302.792969 188.429688 318.378906 C 188.585938 333.96875 190.496094 349.554688 191.09375 356.558594 C 191.695312 363.5625 189.648438 367.160156 186.175781 372.777344 C 183 377.980469 180.628906 382.160156 180.796875 391.226562 Z M 180.796875 391.226562 "/></g><g clip-rule="nonzero" clip-path="url(#285c8ef044)"><g clip-rule="nonzero" clip-path="url(#53ea2c28ad)"><path style=" stroke:none;fill-rule:nonzero;fill:#f1efe7;fill-opacity:1;" d="M 183.019531 276.179688 L 206.648438 276.179688 L 206.648438 299.808594 L 183.019531 299.808594 Z M 183.019531 276.179688 "/></g></g><g style="fill:#f1efe7;fill-opacity:1;"><g transform="translate(227.245918, 431.788487)"><path style="stroke:none" d="M 10.296875 -8.125 C 11.078125 -7.851562 11.71875 -7.410156 12.21875 -6.796875 C 12.71875 -6.179688 12.96875 -5.375 12.96875 -4.375 C 12.96875 -2.800781 12.507812 -1.675781 11.59375 -1 C 10.6875 -0.332031 9.570312 0 8.25 0 L 2.78125 0 C 2.5 0 2.257812 -0.0976562 2.0625 -0.296875 C 1.863281 -0.492188 1.765625 -0.734375 1.765625 -1.015625 L 1.765625 -13.859375 C 1.765625 -14.148438 1.863281 -14.394531 2.0625 -14.59375 C 2.257812 -14.789062 2.5 -14.890625 2.78125 -14.890625 L 8.25 -14.890625 C 9.539062 -14.890625 10.519531 -14.566406 11.1875 -13.921875 C 11.863281 -13.285156 12.203125 -12.367188 12.203125 -11.171875 C 12.203125 -10.484375 12.039062 -9.875 11.71875 -9.34375 C 11.394531 -8.8125 10.921875 -8.40625 10.296875 -8.125 Z M 10.015625 -10.84375 C 10.015625 -11.507812 9.832031 -12.015625 9.46875 -12.359375 C 9.113281 -12.710938 8.609375 -12.890625 7.953125 -12.890625 L 3.9375 -12.890625 L 3.9375 -8.734375 L 8 -8.734375 C 8.582031 -8.753906 9.0625 -8.941406 9.4375 -9.296875 C 9.820312 -9.660156 10.015625 -10.175781 10.015625 -10.84375 Z M 8.234375 -1.953125 C 9.015625 -1.953125 9.632812 -2.15625 10.09375 -2.5625 C 10.5625 -2.96875 10.796875 -3.570312 10.796875 -4.375 C 10.796875 -5.945312 9.90625 -6.734375 8.125 -6.734375 L 3.9375 -6.734375 L 3.9375 -1.953125 Z M 8.234375 -1.953125 "/></g></g><g style="fill:#f1efe7;fill-opacity:1;"><g transform="translate(255.004637, 431.788487)"><path style="stroke:none" d="M 9.796875 -11.140625 C 10.097656 -11.140625 10.34375 -11.039062 10.53125 -10.84375 C 10.726562 -10.644531 10.828125 -10.40625 10.828125 -10.125 L 10.828125 -4.46875 C 10.828125 -2.988281 10.414062 -1.84375 9.59375 -1.03125 C 8.78125 -0.21875 7.628906 0.1875 6.140625 0.1875 C 4.671875 0.1875 3.53125 -0.21875 2.71875 -1.03125 C 1.914062 -1.84375 1.515625 -2.988281 1.515625 -4.46875 L 1.515625 -10.125 C 1.515625 -10.40625 1.609375 -10.644531 1.796875 -10.84375 C 1.984375 -11.039062 2.222656 -11.140625 2.515625 -11.140625 C 2.804688 -11.140625 3.046875 -11.039062 3.234375 -10.84375 C 3.429688 -10.644531 3.53125 -10.40625 3.53125 -10.125 L 3.53125 -4.46875 C 3.53125 -2.613281 4.398438 -1.6875 6.140625 -1.6875 C 7.003906 -1.6875 7.660156 -1.914062 8.109375 -2.375 C 8.566406 -2.84375 8.796875 -3.539062 8.796875 -4.46875 L 8.796875 -10.125 C 8.796875 -10.40625 8.890625 -10.644531 9.078125 -10.84375 C 9.273438 -11.039062 9.515625 -11.140625 9.796875 -11.140625 Z M 9.796875 -11.140625 "/></g></g><g style="fill:#f1efe7;fill-opacity:1;"><g transform="translate(281.210679, 431.788487)"><path style="stroke:none" d="M 10.609375 -1.765625 C 10.828125 -1.535156 10.9375 -1.285156 10.9375 -1.015625 C 10.9375 -0.734375 10.820312 -0.492188 10.59375 -0.296875 C 10.375 -0.109375 10.144531 -0.015625 9.90625 -0.015625 C 9.59375 -0.015625 9.347656 -0.128906 9.171875 -0.359375 L 4.96875 -4.8125 L 3.703125 -3.65625 L 3.703125 -1.015625 C 3.703125 -0.734375 3.601562 -0.492188 3.40625 -0.296875 C 3.21875 -0.0976562 2.984375 0 2.703125 0 C 2.398438 0 2.15625 -0.0976562 1.96875 -0.296875 C 1.78125 -0.492188 1.6875 -0.734375 1.6875 -1.015625 L 1.6875 -14.71875 C 1.6875 -15 1.78125 -15.238281 1.96875 -15.4375 C 2.15625 -15.632812 2.398438 -15.734375 2.703125 -15.734375 C 2.984375 -15.734375 3.21875 -15.632812 3.40625 -15.4375 C 3.601562 -15.238281 3.703125 -15 3.703125 -14.71875 L 3.703125 -6.078125 L 8.90625 -10.859375 C 9.144531 -11.078125 9.394531 -11.1875 9.65625 -11.1875 C 9.894531 -11.1875 10.113281 -11.082031 10.3125 -10.875 C 10.507812 -10.664062 10.609375 -10.453125 10.609375 -10.234375 C 10.609375 -9.941406 10.472656 -9.6875 10.203125 -9.46875 L 6.53125 -6.1875 Z M 10.609375 -1.765625 "/></g></g><g style="fill:#f1efe7;fill-opacity:1;"><g transform="translate(306.884983, 431.788487)"><path style="stroke:none" d="M 10.546875 -11.296875 C 10.847656 -11.296875 11.09375 -11.195312 11.28125 -11 C 11.46875 -10.8125 11.5625 -10.5625 11.5625 -10.25 L 11.5625 -1.015625 C 11.5625 -0.734375 11.46875 -0.492188 11.28125 -0.296875 C 11.09375 -0.0976562 10.847656 0 10.546875 0 C 10.242188 0 10 -0.09375 9.8125 -0.28125 C 9.632812 -0.476562 9.546875 -0.722656 9.546875 -1.015625 L 9.546875 -1.578125 C 9.179688 -1.078125 8.675781 -0.648438 8.03125 -0.296875 C 7.394531 0.046875 6.707031 0.21875 5.96875 0.21875 C 5.007812 0.21875 4.132812 -0.03125 3.34375 -0.53125 C 2.5625 -1.03125 1.945312 -1.722656 1.5 -2.609375 C 1.050781 -3.492188 0.828125 -4.488281 0.828125 -5.59375 C 0.828125 -6.695312 1.050781 -7.691406 1.5 -8.578125 C 1.945312 -9.460938 2.5625 -10.148438 3.34375 -10.640625 C 4.125 -11.140625 4.976562 -11.390625 5.90625 -11.390625 C 6.65625 -11.390625 7.351562 -11.234375 8 -10.921875 C 8.644531 -10.617188 9.160156 -10.222656 9.546875 -9.734375 L 9.546875 -10.25 C 9.546875 -10.550781 9.632812 -10.800781 9.8125 -11 C 10 -11.195312 10.242188 -11.296875 10.546875 -11.296875 Z M 6.203125 -1.65625 C 6.867188 -1.65625 7.460938 -1.820312 7.984375 -2.15625 C 8.503906 -2.5 8.910156 -2.96875 9.203125 -3.5625 C 9.492188 -4.164062 9.640625 -4.84375 9.640625 -5.59375 C 9.640625 -6.332031 9.492188 -7 9.203125 -7.59375 C 8.910156 -8.1875 8.503906 -8.65625 7.984375 -9 C 7.460938 -9.351562 6.867188 -9.53125 6.203125 -9.53125 C 5.535156 -9.53125 4.941406 -9.359375 4.421875 -9.015625 C 3.910156 -8.671875 3.507812 -8.203125 3.21875 -7.609375 C 2.925781 -7.015625 2.78125 -6.34375 2.78125 -5.59375 C 2.78125 -4.84375 2.925781 -4.164062 3.21875 -3.5625 C 3.507812 -2.96875 3.910156 -2.5 4.421875 -2.15625 C 4.941406 -1.820312 5.535156 -1.65625 6.203125 -1.65625 Z M 6.203125 -1.65625 "/></g></g><g style="fill:#f1efe7;fill-opacity:1;"><g transform="translate(333.814189, 431.788487)"><path style="stroke:none" d="M 14.6875 -14.90625 C 14.976562 -14.894531 15.222656 -14.789062 15.421875 -14.59375 C 15.617188 -14.40625 15.71875 -14.171875 15.71875 -13.890625 L 15.71875 -1.015625 C 15.71875 -0.734375 15.617188 -0.492188 15.421875 -0.296875 C 15.234375 -0.0976562 14.984375 0 14.671875 0 C 14.359375 0 14.101562 -0.09375 13.90625 -0.28125 C 13.707031 -0.476562 13.609375 -0.722656 13.609375 -1.015625 L 13.609375 -10.859375 L 9.484375 -4.609375 C 9.378906 -4.484375 9.253906 -4.378906 9.109375 -4.296875 C 8.960938 -4.210938 8.8125 -4.175781 8.65625 -4.1875 C 8.507812 -4.175781 8.363281 -4.210938 8.21875 -4.296875 C 8.070312 -4.378906 7.945312 -4.484375 7.84375 -4.609375 L 3.703125 -11.0625 L 3.703125 -1.015625 C 3.703125 -0.722656 3.613281 -0.476562 3.4375 -0.28125 C 3.257812 -0.09375 3.019531 0 2.71875 0 C 2.4375 0 2.207031 -0.09375 2.03125 -0.28125 C 1.851562 -0.476562 1.765625 -0.722656 1.765625 -1.015625 L 1.765625 -13.890625 C 1.765625 -14.160156 1.863281 -14.394531 2.0625 -14.59375 C 2.257812 -14.800781 2.507812 -14.90625 2.8125 -14.90625 C 2.976562 -14.90625 3.140625 -14.863281 3.296875 -14.78125 C 3.460938 -14.695312 3.597656 -14.582031 3.703125 -14.4375 L 8.734375 -6.8125 L 13.84375 -14.4375 C 14.070312 -14.75 14.351562 -14.90625 14.6875 -14.90625 Z M 14.6875 -14.90625 "/></g></g><g style="fill:#f1efe7;fill-opacity:1;"><g transform="translate(365.167462, 431.788487)"><path style="stroke:none" d="M 11.296875 -6 C 11.273438 -5.738281 11.164062 -5.519531 10.96875 -5.34375 C 10.769531 -5.164062 10.535156 -5.078125 10.265625 -5.078125 L 2.78125 -5.078125 C 2.882812 -4.046875 3.28125 -3.21875 3.96875 -2.59375 C 4.65625 -1.96875 5.492188 -1.65625 6.484375 -1.65625 C 7.160156 -1.65625 7.710938 -1.753906 8.140625 -1.953125 C 8.566406 -2.148438 8.941406 -2.40625 9.265625 -2.71875 C 9.484375 -2.84375 9.691406 -2.90625 9.890625 -2.90625 C 10.128906 -2.90625 10.328125 -2.820312 10.484375 -2.65625 C 10.648438 -2.488281 10.734375 -2.289062 10.734375 -2.0625 C 10.734375 -1.757812 10.59375 -1.488281 10.3125 -1.25 C 9.90625 -0.84375 9.359375 -0.492188 8.671875 -0.203125 C 7.992188 0.078125 7.300781 0.21875 6.59375 0.21875 C 5.445312 0.21875 4.4375 -0.0195312 3.5625 -0.5 C 2.6875 -0.988281 2.007812 -1.664062 1.53125 -2.53125 C 1.0625 -3.394531 0.828125 -4.375 0.828125 -5.46875 C 0.828125 -6.65625 1.070312 -7.695312 1.5625 -8.59375 C 2.050781 -9.5 2.695312 -10.191406 3.5 -10.671875 C 4.300781 -11.148438 5.160156 -11.390625 6.078125 -11.390625 C 6.984375 -11.390625 7.832031 -11.15625 8.625 -10.6875 C 9.425781 -10.226562 10.066406 -9.585938 10.546875 -8.765625 C 11.023438 -7.941406 11.273438 -7.019531 11.296875 -6 Z M 6.078125 -9.53125 C 5.285156 -9.53125 4.597656 -9.304688 4.015625 -8.859375 C 3.429688 -8.410156 3.050781 -7.71875 2.875 -6.78125 L 9.140625 -6.78125 L 9.140625 -6.953125 C 9.066406 -7.703125 8.726562 -8.316406 8.125 -8.796875 C 7.53125 -9.285156 6.847656 -9.53125 6.078125 -9.53125 Z M 6.078125 -9.53125 "/></g></g><g style="fill:#f1efe7;fill-opacity:1;"><g transform="translate(391.160815, 431.788487)"><path style="stroke:none" d="M 11.296875 -6 C 11.273438 -5.738281 11.164062 -5.519531 10.96875 -5.34375 C 10.769531 -5.164062 10.535156 -5.078125 10.265625 -5.078125 L 2.78125 -5.078125 C 2.882812 -4.046875 3.28125 -3.21875 3.96875 -2.59375 C 4.65625 -1.96875 5.492188 -1.65625 6.484375 -1.65625 C 7.160156 -1.65625 7.710938 -1.753906 8.140625 -1.953125 C 8.566406 -2.148438 8.941406 -2.40625 9.265625 -2.71875 C 9.484375 -2.84375 9.691406 -2.90625 9.890625 -2.90625 C 10.128906 -2.90625 10.328125 -2.820312 10.484375 -2.65625 C 10.648438 -2.488281 10.734375 -2.289062 10.734375 -2.0625 C 10.734375 -1.757812 10.59375 -1.488281 10.3125 -1.25 C 9.90625 -0.84375 9.359375 -0.492188 8.671875 -0.203125 C 7.992188 0.078125 7.300781 0.21875 6.59375 0.21875 C 5.445312 0.21875 4.4375 -0.0195312 3.5625 -0.5 C 2.6875 -0.988281 2.007812 -1.664062 1.53125 -2.53125 C 1.0625 -3.394531 0.828125 -4.375 0.828125 -5.46875 C 0.828125 -6.65625 1.070312 -7.695312 1.5625 -8.59375 C 2.050781 -9.5 2.695312 -10.191406 3.5 -10.671875 C 4.300781 -11.148438 5.160156 -11.390625 6.078125 -11.390625 C 6.984375 -11.390625 7.832031 -11.15625 8.625 -10.6875 C 9.425781 -10.226562 10.066406 -9.585938 10.546875 -8.765625 C 11.023438 -7.941406 11.273438 -7.019531 11.296875 -6 Z M 6.078125 -9.53125 C 5.285156 -9.53125 4.597656 -9.304688 4.015625 -8.859375 C 3.429688 -8.410156 3.050781 -7.71875 2.875 -6.78125 L 9.140625 -6.78125 L 9.140625 -6.953125 C 9.066406 -7.703125 8.726562 -8.316406 8.125 -8.796875 C 7.53125 -9.285156 6.847656 -9.53125 6.078125 -9.53125 Z M 6.078125 -9.53125 "/></g></g><g style="fill:#f1efe7;fill-opacity:1;"><g transform="translate(417.154169, 431.788487)"><path style="stroke:none" d="M 4.53125 -9.171875 L 4.53125 -2.828125 C 4.53125 -2.117188 4.847656 -1.765625 5.484375 -1.765625 C 5.585938 -1.765625 5.722656 -1.785156 5.890625 -1.828125 C 6.054688 -1.878906 6.191406 -1.90625 6.296875 -1.90625 C 6.484375 -1.90625 6.640625 -1.828125 6.765625 -1.671875 C 6.890625 -1.523438 6.953125 -1.328125 6.953125 -1.078125 C 6.953125 -0.785156 6.78125 -0.53125 6.4375 -0.3125 C 6.101562 -0.101562 5.722656 0 5.296875 0 C 4.828125 0 4.394531 -0.046875 4 -0.140625 C 3.613281 -0.242188 3.269531 -0.5 2.96875 -0.90625 C 2.664062 -1.3125 2.515625 -1.925781 2.515625 -2.75 L 2.515625 -9.171875 L 1.28125 -9.171875 C 1.007812 -9.171875 0.785156 -9.257812 0.609375 -9.4375 C 0.429688 -9.613281 0.34375 -9.832031 0.34375 -10.09375 C 0.34375 -10.363281 0.429688 -10.582031 0.609375 -10.75 C 0.785156 -10.925781 1.007812 -11.015625 1.28125 -11.015625 L 2.515625 -11.015625 L 2.515625 -12.796875 C 2.515625 -13.085938 2.609375 -13.332031 2.796875 -13.53125 C 2.984375 -13.726562 3.226562 -13.828125 3.53125 -13.828125 C 3.8125 -13.828125 4.046875 -13.726562 4.234375 -13.53125 C 4.429688 -13.332031 4.53125 -13.085938 4.53125 -12.796875 L 4.53125 -11.015625 L 6.296875 -11.015625 C 6.566406 -11.015625 6.789062 -10.925781 6.96875 -10.75 C 7.144531 -10.570312 7.234375 -10.347656 7.234375 -10.078125 C 7.234375 -9.804688 7.144531 -9.585938 6.96875 -9.421875 C 6.789062 -9.253906 6.566406 -9.171875 6.296875 -9.171875 Z M 4.53125 -9.171875 "/></g></g><g style="fill:#f1efe7;fill-opacity:1;"><g transform="translate(439.106305, 431.788487)"><path style="stroke:none" d="M 0.875 -1.75 C 0.75 -1.945312 0.6875 -2.132812 0.6875 -2.3125 C 0.6875 -2.601562 0.832031 -2.847656 1.125 -3.046875 C 1.269531 -3.140625 1.429688 -3.1875 1.609375 -3.1875 C 1.867188 -3.1875 2.101562 -3.082031 2.3125 -2.875 C 2.738281 -2.382812 3.195312 -2.019531 3.6875 -1.78125 C 4.175781 -1.539062 4.757812 -1.421875 5.4375 -1.421875 C 5.976562 -1.441406 6.453125 -1.566406 6.859375 -1.796875 C 7.273438 -2.023438 7.484375 -2.40625 7.484375 -2.9375 C 7.484375 -3.414062 7.273438 -3.78125 6.859375 -4.03125 C 6.441406 -4.289062 5.828125 -4.53125 5.015625 -4.75 C 4.222656 -4.957031 3.5625 -5.175781 3.03125 -5.40625 C 2.507812 -5.644531 2.066406 -5.988281 1.703125 -6.4375 C 1.347656 -6.882812 1.171875 -7.46875 1.171875 -8.1875 C 1.171875 -8.820312 1.347656 -9.378906 1.703125 -9.859375 C 2.066406 -10.347656 2.550781 -10.722656 3.15625 -10.984375 C 3.757812 -11.253906 4.414062 -11.390625 5.125 -11.390625 C 5.800781 -11.390625 6.476562 -11.257812 7.15625 -11 C 7.832031 -10.75 8.378906 -10.363281 8.796875 -9.84375 C 8.972656 -9.644531 9.0625 -9.441406 9.0625 -9.234375 C 9.0625 -9.003906 8.945312 -8.78125 8.71875 -8.5625 C 8.570312 -8.4375 8.394531 -8.375 8.1875 -8.375 C 7.925781 -8.375 7.722656 -8.460938 7.578125 -8.640625 C 7.273438 -8.972656 6.90625 -9.234375 6.46875 -9.421875 C 6.039062 -9.609375 5.566406 -9.703125 5.046875 -9.703125 C 4.503906 -9.703125 4.046875 -9.585938 3.671875 -9.359375 C 3.296875 -9.140625 3.109375 -8.769531 3.109375 -8.25 C 3.117188 -7.75 3.332031 -7.378906 3.75 -7.140625 C 4.164062 -6.898438 4.804688 -6.664062 5.671875 -6.4375 C 6.429688 -6.238281 7.054688 -6.023438 7.546875 -5.796875 C 8.046875 -5.578125 8.460938 -5.242188 8.796875 -4.796875 C 9.140625 -4.347656 9.3125 -3.765625 9.3125 -3.046875 C 9.3125 -2.378906 9.117188 -1.800781 8.734375 -1.3125 C 8.359375 -0.820312 7.859375 -0.441406 7.234375 -0.171875 C 6.617188 0.0859375 5.96875 0.21875 5.28125 0.21875 C 4.382812 0.21875 3.554688 0.0625 2.796875 -0.25 C 2.035156 -0.5625 1.394531 -1.0625 0.875 -1.75 Z M 0.875 -1.75 "/></g></g><g style="fill:#f1efe7;fill-opacity:1;"><g transform="translate(463.121593, 431.788487)"><path style="stroke:none" d="M 12 -13.921875 C 12 -13.710938 11.929688 -13.503906 11.796875 -13.296875 L 7.234375 -6.84375 L 7.234375 -1.015625 C 7.234375 -0.734375 7.132812 -0.492188 6.9375 -0.296875 C 6.75 -0.0976562 6.519531 0 6.25 0 C 5.96875 0 5.726562 -0.0976562 5.53125 -0.296875 C 5.332031 -0.492188 5.234375 -0.734375 5.234375 -1.015625 L 5.234375 -7.015625 L 0.6875 -13.15625 C 0.476562 -13.414062 0.375 -13.671875 0.375 -13.921875 C 0.375 -14.210938 0.488281 -14.457031 0.71875 -14.65625 C 0.945312 -14.851562 1.195312 -14.953125 1.46875 -14.953125 C 1.789062 -14.953125 2.066406 -14.796875 2.296875 -14.484375 L 6.296875 -8.953125 L 10.140625 -14.453125 C 10.367188 -14.785156 10.65625 -14.953125 11 -14.953125 C 11.257812 -14.953125 11.488281 -14.851562 11.6875 -14.65625 C 11.894531 -14.457031 12 -14.210938 12 -13.921875 Z M 12 -13.921875 "/></g></g><g style="fill:#f1efe7;fill-opacity:1;"><g transform="translate(489.348887, 431.788487)"><path style="stroke:none" d="M 12.0625 -5.578125 C 12.0625 -4.460938 11.8125 -3.46875 11.3125 -2.59375 C 10.8125 -1.71875 10.132812 -1.03125 9.28125 -0.53125 C 8.425781 -0.03125 7.476562 0.21875 6.4375 0.21875 C 5.40625 0.21875 4.457031 -0.03125 3.59375 -0.53125 C 2.738281 -1.03125 2.0625 -1.71875 1.5625 -2.59375 C 1.070312 -3.46875 0.828125 -4.460938 0.828125 -5.578125 C 0.828125 -6.679688 1.070312 -7.675781 1.5625 -8.5625 C 2.0625 -9.457031 2.738281 -10.148438 3.59375 -10.640625 C 4.457031 -11.140625 5.40625 -11.390625 6.4375 -11.390625 C 7.476562 -11.390625 8.425781 -11.140625 9.28125 -10.640625 C 10.132812 -10.148438 10.8125 -9.457031 11.3125 -8.5625 C 11.8125 -7.675781 12.0625 -6.679688 12.0625 -5.578125 Z M 10.03125 -5.578125 C 10.03125 -6.335938 9.867188 -7.019531 9.546875 -7.625 C 9.234375 -8.226562 8.800781 -8.695312 8.25 -9.03125 C 7.707031 -9.363281 7.101562 -9.53125 6.4375 -9.53125 C 5.769531 -9.53125 5.164062 -9.363281 4.625 -9.03125 C 4.082031 -8.695312 3.648438 -8.226562 3.328125 -7.625 C 3.003906 -7.019531 2.84375 -6.335938 2.84375 -5.578125 C 2.84375 -4.816406 3.003906 -4.140625 3.328125 -3.546875 C 3.648438 -2.953125 4.082031 -2.488281 4.625 -2.15625 C 5.164062 -1.820312 5.769531 -1.65625 6.4375 -1.65625 C 7.101562 -1.65625 7.707031 -1.820312 8.25 -2.15625 C 8.800781 -2.488281 9.234375 -2.953125 9.546875 -3.546875 C 9.867188 -4.140625 10.03125 -4.816406 10.03125 -5.578125 Z M 10.03125 -5.578125 "/></g></g><g style="fill:#f1efe7;fill-opacity:1;"><g transform="translate(516.107965, 431.788487)"><path style="stroke:none" d="M 9.796875 -11.140625 C 10.097656 -11.140625 10.34375 -11.039062 10.53125 -10.84375 C 10.726562 -10.644531 10.828125 -10.40625 10.828125 -10.125 L 10.828125 -4.46875 C 10.828125 -2.988281 10.414062 -1.84375 9.59375 -1.03125 C 8.78125 -0.21875 7.628906 0.1875 6.140625 0.1875 C 4.671875 0.1875 3.53125 -0.21875 2.71875 -1.03125 C 1.914062 -1.84375 1.515625 -2.988281 1.515625 -4.46875 L 1.515625 -10.125 C 1.515625 -10.40625 1.609375 -10.644531 1.796875 -10.84375 C 1.984375 -11.039062 2.222656 -11.140625 2.515625 -11.140625 C 2.804688 -11.140625 3.046875 -11.039062 3.234375 -10.84375 C 3.429688 -10.644531 3.53125 -10.40625 3.53125 -10.125 L 3.53125 -4.46875 C 3.53125 -2.613281 4.398438 -1.6875 6.140625 -1.6875 C 7.003906 -1.6875 7.660156 -1.914062 8.109375 -2.375 C 8.566406 -2.84375 8.796875 -3.539062 8.796875 -4.46875 L 8.796875 -10.125 C 8.796875 -10.40625 8.890625 -10.644531 9.078125 -10.84375 C 9.273438 -11.039062 9.515625 -11.140625 9.796875 -11.140625 Z M 9.796875 -11.140625 "/></g></g></g></svg>